PathFileType	4	(X/Y/Z)	/Users/visionmauri/2_8_1_f_Sports2D/2_8_1_f_Sports2D_px_person00.trc
DataRate	CameraRate	NumFrames	NumMarkers	Units	OrigDataRate	OrigDataStartFrame	OrigNumFrames
30.0	30.0	13	22	m	30.0	43	350
Frame#	Time	Hip			RHip			RKnee			RAnkle			RBigToe			RSmallToe			RHeel			LHip			LKnee			LAnkle			LBigToe			LSmallToe			LHeel			Neck			Head			Nose			RShoulder			RElbow			RWrist			LShoulder			LElbow			LWrist			
		X1	Y1	Z1	X2	Y2	Z2	X3	Y3	Z3	X4	Y4	Z4	X5	Y5	Z5	X6	Y6	Z6	X7	Y7	Z7	X8	Y8	Z8	X9	Y9	Z9	X10	Y10	Z10	X11	Y11	Z11	X12	Y12	Z12	X13	Y13	Z13	X14	Y14	Z14	X15	Y15	Z15	X16	Y16	Z16	X17	Y17	Z17	X18	Y18	Z18	X19	Y19	Z19	X20	Y20	Z20	X21	Y21	Z21	X22	Y22	Z22
43	1.4374403056351481	630.8302984410444	777.9357625855077	0.0	698.8307577897725	811.2494114852456	0.0	664.7832521620112	1111.1720179295412	0.0	624.5709757618376	1411.3400553272688	0.0	650.8962031829597	1417.7120837863272	0.0	687.7905949454395	1446.2554883135706	0.0	612.2849691774177	1461.476844397472	0.0	558.2943392515288	787.911065211325	0.0	545.2972864672084	979.8966750659444	0.0	533.2596201755229	1137.4406913196456	0.0	538.6762275359583	1195.1983418464174	0.0	494.0718862953166	1193.18039361685	0.0	541.2692864986964	1182.4526055847582	0.0	678.126450616949	371.78398360059134	0.0	681.231868988084	223.44247843488563	0.0	678.0045230086542	318.31282404938077	0.0	806.2012424917053	430.8330737717714	0.0	844.5295446232778	663.1715273805804	0.0	816.8250019930829	729.3836391689567	0.0	554.0823222280249	399.2720463551616	0.0	432.5807430172258	598.537457281264	0.0	406.33358100114674	708.500508198299	0.0
44	1.4708691499522446	628.7733306859354	782.4134917307659	0.0	697.9470632163817	813.0773237085194	0.0	664.8117796642058	1109.8589373672912	0.0	624.0678053293591	1410.0957409324567	0.0	654.3756329985172	1419.665662040615	0.0	687.5821231779297	1446.4410571201965	0.0	610.6344490133632	1460.9538935691617	0.0	557.1049167466201	793.2542180422641	0.0	546.5896114336342	996.3634215245917	0.0	536.4255742636844	1172.344624034716	0.0	541.1676979446765	1241.0274042910926	0.0	500.8769299898779	1207.4618947598424	0.0	543.9608497129913	1207.5741371964957	0.0	671.1834749597627	375.42913435423526	0.0	675.5861750089414	224.89947984987018	0.0	673.785879134901	318.0977245182852	0.0	800.6481972581296	431.5371794107736	0.0	836.0073707343306	661.8625682928787	0.0	811.6748688195584	736.1306379825327	0.0	548.1958733138523	405.39133446241635	0.0	433.4743417377214	602.5306670817889	0.0	405.2058886785124	710.359126840075	0.0
45	1.504297994269341	627.3057068297509	786.9238637717157	0.0	696.6786565113865	816.6221831893391	0.0	664.8585690535847	1109.351167668879	0.0	624.5562552322633	1409.2739501063115	0.0	653.3179752871082	1421.6119628532858	0.0	687.4605668154437	1447.3048607880614	0.0	609.8434295989401	1460.532975337183	0.0	556.1590162026574	799.7728877406396	0.0	548.4093181738884	1005.1473231112317	0.0	537.3278675647102	1194.6025113328183	0.0	545.3194177327105	1271.3653734359557	0.0	510.94910951882747	1227.6443559363047	0.0	544.8748484840246	1221.9156696963853	0.0	666.9397594659683	377.9026738897535	0.0	670.3243868402662	228.90274202484005	0.0	669.1022620556909	318.9516011193096	0.0	796.3201726476865	433.82794140776394	0.0	829.7213077009645	661.6589753502359	0.0	809.247111873738	741.366520821529	0.0	542.9898452987245	411.65155696221484	0.0	432.6303877321832	606.2442029576724	0.0	402.93468828333397	712.24197454448	0.0
46	1.5377268385864375	626.2004829900474	788.9422898501988	0.0	695.5566586279209	818.0271217377028	0.0	664.8541714949184	1108.3261563528883	0.0	625.2221038497328	1408.3618074590922	0.0	650.3742893573366	1421.7007867431125	0.0	687.5443183393979	1448.0987584755403	0.0	609.8804984061462	1460.6596409227866	0.0	555.9456123752217	801.9264407855561	0.0	550.4612781232878	1003.5251803062578	0.0	537.5425341551119	1190.7334137213734	0.0	549.2220384932637	1269.7294335428858	0.0	518.5769674165346	1229.7251832019542	0.0	545.2985744067661	1213.1233831295765	0.0	664.0102552797744	379.0473636912584	0.0	665.8089520434796	232.42913993621548	0.0	664.7684927284486	321.76588985733514	0.0	792.4209071934363	435.74728725618843	0.0	825.1983474786903	661.7652829972819	0.0	808.3650791449483	744.4596493710313	0.0	538.9111778070551	416.3491967045823	0.0	431.0148152265533	609.6872285620033	0.0	400.5618972285348	714.5628735362585	0.0
47	1.571155682903534	624.6457221153406	787.4701241442218	0.0	694.5028354280396	815.7054155376106	0.0	664.8638398673991	1104.5157556914537	0.0	625.7283642153948	1405.4894585637542	0.0	648.9404949989498	1418.8488168500878	0.0	687.8485186730039	1447.4153180828212	0.0	610.1018057344545	1459.6035952560871	0.0	555.9009453003916	798.6152530672954	0.0	551.5802704968349	997.796948128586	0.0	538.0099589766287	1162.261702740213	0.0	550.9571048939265	1259.2761462960732	0.0	520.3265365576771	1217.3919625704857	0.0	545.616704200281	1189.068650170719	0.0	660.067676125323	378.90349655981174	0.0	661.7480486435131	233.60405428075944	0.0	660.099620848736	325.50259517956226	0.0	788.1244142337608	436.3885842269194	0.0	821.1719567836826	659.9625277266716	0.0	807.7042302016308	746.4936515369852	0.0	535.2003184439583	419.2168237774994	0.0	430.6126645861848	611.8719573094883	0.0	398.43215249292155	716.5829668167263	0.0
48	1.6045845272206303	622.8505647262638	784.6811555491201	0.0	692.8633901840575	813.1109444126994	0.0	665.1531785249731	1097.7641502862432	0.0	626.7025281162133	1401.292876667821	0.0	648.3967082291844	1415.5085053108428	0.0	687.7125144991409	1445.7787042486157	0.0	611.010016821238	1456.2439855266136	0.0	555.6338716884408	795.4909683307242	0.0	551.3224104841747	993.7127754543377	0.0	538.4622220205321	1127.9893585109733	0.0	551.7349609311802	1255.8219541570909	0.0	518.5651866800598	1209.286053390309	0.0	545.0310577147878	1176.8982032651763	0.0	655.7769395397748	378.5335224729708	0.0	656.6158859870734	235.67326671109103	0.0	653.947096197052	327.6604570351417	0.0	784.0505176965333	436.7502972063343	0.0	817.5963397190998	656.7022955269947	0.0	807.2271971786032	749.8618312453223	0.0	531.7972963860907	421.4898424870553	0.0	430.90817518320944	613.0191720825842	0.0	395.73623655761463	718.7879881578431	0.0
49	1.6380133715377267	620.9201264976941	782.2030425355065	0.0	690.5285440454513	811.2675517348798	0.0	665.7489761226359	1091.101439356126	0.0	628.1222890687701	1398.575516770383	0.0	646.6082535974531	1415.2039972129787	0.0	686.000163372323	1444.7262509302766	0.0	612.6996457943053	1452.3410183591866	0.0	555.0598230785803	794.9850029265527	0.0	549.9981146544162	991.7075165532575	0.0	538.2036281100459	1108.6634970377008	0.0	552.0346978264186	1256.6891598640823	0.0	516.5237473585543	1211.6969555644612	0.0	543.4554861195766	1185.2351505617028	0.0	652.0727008842805	380.8257131175371	0.0	650.2390016897491	240.86247260039292	0.0	647.6753652904185	327.48150711032645	0.0	780.4479349963796	436.95731596142065	0.0	815.1306297582224	653.5367420433715	0.0	806.5591604151368	754.2311712735268	0.0	529.337623988613	423.92930940730383	0.0	429.97269949511184	614.0335749338606	0.0	391.6420259011706	721.9954213371486	0.0
50	1.6714422158548232	618.0884388575845	779.2591921493091	0.0	687.4803136241109	807.3007811477278	0.0	666.1515017011793	1087.0107886100002	0.0	629.0836773906941	1397.5263865374234	0.0	644.0305065155238	1416.4253340013847	0.0	682.8021018181173	1443.7310497403496	0.0	613.9528894808304	1449.929469162476	0.0	553.1796096919912	793.5154406465498	0.0	548.2496583139259	991.6087477645184	0.0	536.9047517625972	1105.3684375778143	0.0	551.1506411746136	1256.76074358063	0.0	515.0890140519627	1223.3462203382785	0.0	541.961054426598	1193.5074525585705	0.0	648.0212601923843	386.6872819567272	0.0	644.4743587854225	246.12693470599964	0.0	643.2640019790434	327.3977394260242	0.0	776.7477997187381	436.41170216241636	0.0	813.6132496230201	651.1304658815084	0.0	805.4935030876401	757.3113475888251	0.0	526.7877749961274	426.8697917538852	0.0	427.7455660299918	614.9098809841785	0.0	386.55775394288924	725.6827193698048	0.0
51	1.7048710601719197	613.9230741959433	775.57020791966	0.0	683.0930105608203	802.2978435868064	0.0	665.9447961317436	1084.4603878838188	0.0	629.4146442304393	1395.6832336725377	0.0	642.1634490137461	1414.3705286512436	0.0	680.1647241654271	1440.8582656935844	0.0	614.4800901961701	1448.6254350796698	0.0	549.1637917970723	790.1544263754257	0.0	546.5083748949487	992.3116059693137	0.0	535.2522251311748	1106.3841868104928	0.0	550.0891722792978	1242.2554806734192	0.0	513.9857433031108	1233.7287551272318	0.0	541.0270221200576	1187.6579164956752	0.0	643.3969398610535	392.83034478763363	0.0	640.1073240128337	249.49334025202796	0.0	639.8188769345617	329.9973183482909	0.0	773.1636246056877	436.3151964429936	0.0	812.5225613833136	650.1714925388482	0.0	804.7298709604951	759.643662650607	0.0	522.543751507005	430.5897788951146	0.0	425.45635791910684	615.3608755605935	0.0	381.9422821610078	729.0534860084878	0.0
52	1.7382999044890162	609.5372815970716	772.02530733067	0.0	677.9143923006916	799.8776630910561	0.0	665.4674239339332	1080.6815262400282	0.0	630.022090729776	1392.0036888651061	0.0	640.8993325980008	1408.288932955703	0.0	680.063760427783	1436.2950925835626	0.0	615.6908485390527	1446.4962108901013	0.0	544.4640923736413	787.0664725093746	0.0	544.8541578214181	986.4117687257154	0.0	534.5393847158871	1100.192440695084	0.0	549.1904950806763	1188.9588226247204	0.0	512.4074089895603	1209.2304698760993	0.0	540.2759509437483	1169.3299466527446	0.0	639.9031364724544	396.23911952794083	0.0	636.0667701348596	253.28222043756153	0.0	635.3759344503542	334.7492385078939	0.0	770.7558329423433	438.6186627428687	0.0	811.9581962459691	650.172618031535	0.0	804.4779352982018	762.6548289454443	0.0	517.9424115643804	434.4795225533035	0.0	423.2678443923542	615.8461642763441	0.0	378.9411380325412	732.3767561405924	0.0
53	1.7717287488061126	606.6593478841593	768.7253310857366	0.0	674.2566515428175	798.8471168072869	0.0	665.3647269769745	1074.848031905835	0.0	631.2811291886533	1387.5229195193492	0.0	639.9144778785022	1402.0124855083193	0.0	681.8351334436658	1432.1152096604183	0.0	617.9850205040877	1442.3608884072705	0.0	541.1711134999832	784.0087901795581	0.0	543.4405945674754	969.2018736832537	0.0	535.2125932246121	1081.4555840539206	0.0	545.3290190051515	1106.3153365221565	0.0	509.81074345237	1139.5178803448455	0.0	539.9114322762607	1140.9353692176176	0.0	638.0846550538134	397.98974669115273	0.0	631.7631469444042	258.522538918518	0.0	630.1518976060354	339.21947556167146	0.0	769.5675006519199	442.9171026648691	0.0	812.0718732442102	649.088699431273	0.0	804.3293273062626	764.764339567525	0.0	515.0896529174834	437.40271690972287	0.0	420.6484318642429	617.030806114278	0.0	377.5562316508879	736.6735653306754	0.0
54	1.8051575931232091	605.5361776246059	765.0808637602826	0.0	673.1575645671634	795.480779773783	0.0	665.7174619608097	1069.0050018790034	0.0	632.5216384970466	1382.4178086670695	0.0	639.9842414450321	1398.6253432478538	0.0	682.5542779028871	1428.7563509893128	0.0	619.9736106275586	1436.278454799288	0.0	539.219481178691	780.3365349781342	0.0	542.2368307454176	953.5459762839716	0.0	535.6129456344204	1059.7058644506849	0.0	536.0298024076087	1043.7842315660469	0.0	506.78956457202264	1071.3649545078906	0.0	539.6891384889358	1107.8712108719103	0.0	635.7939089084638	400.78989117039896	0.0	627.9404241425024	262.893865519828	0.0	625.8189168607543	342.5294437906326	0.0	767.4952058863657	446.6990544726407	0.0	812.1709924854143	645.874193197982	0.0	804.873561101583	763.7573294835908	0.0	512.8009823582349	439.2546397892478	0.0	417.88227384181795	618.6236198927214	0.0	377.041569664932	742.0254351266011	0.0
55	1.8385864374403056	604.6531895714714	761.6635582799612	0.0	672.770605485208	790.1277639967898	0.0	666.3620163773345	1065.3317118052942	0.0	633.5145383741096	1374.929261362554	0.0	641.806085580201	1397.9521192854966	0.0	680.8066919674209	1425.1895659306374	0.0	620.9583707003667	1428.0141373617992	0.0	537.3481003037849	777.5579981784141	0.0	540.7365190749824	956.046053142378	0.0	533.4867493545587	1048.5526707886424	0.0	524.7955864003358	1024.1448660367978	0.0	504.0006703374528	1042.860828688716	0.0	537.7942517271727	1079.6295850273466	0.0	631.3822794530603	404.6952214789244	0.0	624.8838539651449	265.3264385653185	0.0	622.9263963510061	345.5832639791404	0.0	762.5081629192962	448.230050012903	0.0	811.3474871032977	640.9669541479294	0.0	806.550050935544	760.5727169769649	0.0	508.89732476198463	440.80615331067906	0.0	415.87378174653503	619.2901856321181	0.0	376.67641004960296	746.9226900538242	0.0
